<svg width="28" height="29" viewBox="0 0 28 29" fill="none" xmlns="http://www.w3.org/2000/svg">
<path d="M12.2081 13.6405C12.2417 13.5901 12.3285 13.4193 12.3285 13.3633C12.2361 13.2737 12.1045 13.2569 12.0625 13.2037C12.0485 13.1841 12.2305 13.0693 12.2333 13.0469L12.2641 12.9041C12.2557 12.8873 11.8945 13.1561 11.8973 13.3605V13.3773C11.8945 13.4697 12.1689 13.5565 12.1689 13.5565C12.1157 13.6237 11.6089 13.8393 11.4941 13.8701C11.7629 13.8869 12.0569 13.8757 12.2081 13.6405Z" fill="#7A6E66"/>
<path d="M5.14107 13.6656C4.97307 13.4388 4.62587 13.1812 4.16107 12.6716C4.16107 12.6716 3.93147 12.442 3.79707 12.2936L3.74947 12.6296C4.00987 12.9824 4.49707 13.4752 5.07947 13.9652C5.10187 13.9848 5.05987 14.01 5.04307 14.0156C4.67907 14.1948 3.75227 14.5952 3.39947 14.6008C2.85627 14.6092 3.06347 13.8896 3.10827 13.7664C3.10827 13.7664 3.12507 13.716 3.09987 13.7048C2.99627 13.9428 2.55667 14.9788 3.36027 14.9676C3.81947 14.962 4.79107 14.4972 5.12147 14.3292C5.23347 14.2732 5.23347 14.1052 5.23627 14.0296C5.23067 13.8812 5.21387 13.7832 5.14107 13.6656Z" fill="#7A6E66"/>
<path d="M16.0987 13.6236L16.0791 13.6012C16.0455 13.7132 16.0147 13.8196 15.9811 13.9288C16.0931 14.0856 16.2163 14.2564 16.2303 14.4552C16.2163 14.5812 15.8971 14.626 15.6423 14.6288H15.6395C15.0095 14.6288 15.0739 14.2508 15.0795 14.0884C15.0767 14.094 14.7827 14.6092 14.3375 14.6092C13.8251 14.584 13.6627 14.2648 13.6543 14.038C13.6487 13.3044 13.0187 13.0216 12.4727 12.2096L12.4559 12.1844C12.4559 12.1844 12.2767 11.9016 12.2599 11.8792C12.3495 11.7924 14.5391 11.3164 14.9227 11.2408C15.0039 11.2296 15.0739 11.2464 15.0151 11.4536C14.9479 11.6832 14.7015 12.2936 14.5895 12.5792C14.8247 12.204 15.4155 10.9272 15.1439 10.9496C14.6959 11.0308 12.4867 11.5376 12.1759 11.6636C12.1451 11.7168 12.0947 12.1144 12.1199 12.134C12.5819 12.8872 13.2511 13.464 13.4331 13.7804C13.4695 13.8448 13.4835 13.9092 13.4779 13.926C13.3043 14.3404 11.8539 14.6512 11.3891 14.6512C11.3107 14.6512 11.2127 14.6484 11.1091 14.6372C11.7195 13.6712 10.2243 11.7812 9.88271 11.224C9.77631 11.0616 9.73431 10.9888 9.73431 10.9888L9.60271 11.2688C9.66151 11.5852 9.80711 13.7468 9.80711 13.898C9.80991 14.08 9.81271 14.0828 9.81271 14.2984C9.81271 14.5756 9.29191 14.5644 9.22471 14.556C9.04271 14.5224 8.95591 14.1444 8.94471 13.8868C8.33151 14.6792 7.62591 14.626 7.62311 14.626C6.95111 14.5504 6.92871 13.66 6.90631 13.1336C6.90071 12.96 6.90351 11.4508 6.86991 10.9692C6.86991 10.9692 6.66271 11.2632 6.65151 11.3108C6.65151 11.4536 6.70751 12.8788 6.72991 13.2932C6.75511 13.7244 6.64591 14.1248 6.26791 14.458C6.28751 14.4356 6.34071 14.29 6.34351 14.2368C6.41351 13.478 5.50631 12.7248 4.91831 11.8568L4.89871 11.8316C4.89871 11.8316 4.64671 11.406 4.59351 11.336C4.56271 11.4088 4.52071 11.5852 4.50391 11.6916C5.26551 12.9656 6.24271 13.6936 6.19231 14.3292C6.18111 14.4552 6.16431 14.5056 6.08871 14.5812C5.73311 14.8864 5.35231 15.0796 4.92111 15.2588H4.98551C5.31031 15.27 5.88151 15.1384 6.13631 14.9508C6.50031 14.6848 6.75791 14.1976 6.82231 13.898L6.82511 13.8812L6.82791 13.8952C6.86151 14.2984 6.85871 14.7856 7.43831 14.934C7.86951 15.0432 8.26151 14.8528 8.52751 14.6652C8.74591 14.5112 8.87471 14.3544 8.87471 14.3656C8.87471 14.5952 8.92511 14.7716 9.03711 14.8388C9.22751 14.9536 9.49351 14.9004 9.49351 14.9004C10.1151 14.794 10.0227 14.0492 10.0227 13.7048C10.0227 13.2736 9.87991 11.868 9.86311 11.658C10.1739 12.1536 11.4423 13.8364 10.9383 14.6176C10.7815 14.5896 10.6303 14.5392 10.5435 14.4496C10.5435 14.444 10.3587 14.3124 10.3615 14.0772C10.3643 13.7608 10.5939 13.4556 10.5939 13.4556C10.3475 13.6684 10.2131 14.1052 10.2131 14.2592C10.2131 14.6232 10.4399 14.8248 10.7339 14.9144C10.5911 15.0796 10.5659 15.116 10.4735 15.2112C10.6303 15.13 10.7619 15.0404 10.8683 14.9452C10.9579 14.962 11.0503 14.9676 11.1399 14.9676C12.3467 14.9676 13.3799 14.5028 13.5367 14.122C13.5255 15.0796 14.4635 14.9116 14.4635 14.9116C14.7967 14.8556 14.9143 14.6904 15.0207 14.5588V14.5644C15.1747 15.1552 16.0903 14.892 16.0987 14.892C16.3059 14.8444 16.3759 14.3992 16.3759 14.234C16.3703 14.0044 16.2387 13.8 16.0987 13.6236Z" fill="#7A6E66"/>
<path d="M15.2852 13.3996L15.0108 13.198L14.8512 13.4108C14.8512 13.4108 14.8344 13.4276 14.8512 13.4416L15.1312 13.6404L15.2852 13.4388C15.2992 13.4164 15.2936 13.408 15.2852 13.3996Z" fill="#7A6E66"/>
<path d="M15.8477 15.4101L15.5733 15.2057L15.4137 15.4185C15.4137 15.4185 15.3969 15.4353 15.4137 15.4493L15.6937 15.6481L15.8477 15.4465C15.8617 15.4269 15.8561 15.4185 15.8477 15.4101Z" fill="#7A6E66"/>
<path d="M9.23724 15.41L8.96284 15.2084L8.80044 15.4212C8.80044 15.4212 8.78364 15.438 8.80044 15.452L9.08044 15.6508L9.23444 15.4492C9.25124 15.4268 9.24564 15.4184 9.23724 15.41Z" fill="#7A6E66"/>
<path d="M3.4854 17.7425C3.5358 17.7425 3.5862 17.7397 3.6422 17.7341C3.6954 17.7285 3.7458 17.7145 3.7906 17.6949C3.8354 17.6725 3.8718 17.6417 3.9026 17.5997C3.9306 17.5577 3.9474 17.5017 3.9474 17.4289C3.9474 17.3589 3.9334 17.3029 3.9054 17.2609C3.8774 17.2189 3.841 17.1853 3.799 17.1601C3.7542 17.1349 3.7094 17.1181 3.6562 17.1097C3.603 17.1013 3.5526 17.0957 3.505 17.0957H3.1522V17.7425H3.4854ZM3.4938 16.8577C3.5358 16.8577 3.5778 16.8521 3.6198 16.8409C3.6618 16.8297 3.701 16.8129 3.7346 16.7905C3.771 16.7681 3.799 16.7373 3.8186 16.7009C3.841 16.6645 3.8494 16.6197 3.8494 16.5665C3.8494 16.5077 3.8382 16.4629 3.8186 16.4265C3.7962 16.3901 3.7682 16.3621 3.7346 16.3425C3.701 16.3229 3.6618 16.3089 3.6198 16.3033C3.5778 16.2977 3.5358 16.2921 3.4938 16.2921H3.1494V16.8549H3.4938V16.8577ZM2.8806 16.0541H3.533C3.6338 16.0541 3.7206 16.0681 3.7934 16.0933C3.8662 16.1185 3.9278 16.1549 3.9754 16.1997C4.023 16.2445 4.0594 16.2949 4.0818 16.3565C4.107 16.4153 4.1182 16.4797 4.1182 16.5469C4.1182 16.6085 4.107 16.6645 4.0846 16.7149C4.0622 16.7653 4.0342 16.8073 4.0034 16.8437C3.9726 16.8773 3.9362 16.9053 3.8998 16.9277C3.8606 16.9501 3.827 16.9613 3.7962 16.9669C3.8354 16.9725 3.8802 16.9837 3.9306 17.0033C3.981 17.0201 4.0258 17.0481 4.0678 17.0845C4.1098 17.1209 4.1462 17.1685 4.1742 17.2273C4.2022 17.2861 4.2162 17.3589 4.2162 17.4457C4.2162 17.5493 4.1966 17.6361 4.1602 17.7061C4.1238 17.7733 4.0706 17.8293 4.0062 17.8713C3.9418 17.9133 3.8662 17.9441 3.7766 17.9609C3.687 17.9777 3.5918 17.9861 3.4938 17.9861H2.875L2.8806 16.0541Z" fill="#7A6E66"/>
<path d="M5.28389 17.3477C5.27549 17.3449 5.26149 17.3421 5.23909 17.3393C5.21669 17.3365 5.19149 17.3337 5.16349 17.3309C5.13269 17.3281 5.10189 17.3281 5.07109 17.3253C5.03749 17.3225 5.00669 17.3225 4.97589 17.3225C4.90309 17.3225 4.84149 17.3309 4.79669 17.3477C4.75189 17.3645 4.71549 17.3869 4.69029 17.4121C4.66509 17.4373 4.64549 17.4681 4.63709 17.4989C4.62589 17.5297 4.62309 17.5605 4.62309 17.5885C4.62309 17.6613 4.64829 17.7173 4.69869 17.7537C4.74909 17.7901 4.81909 17.8097 4.90589 17.8097C4.95629 17.8097 5.00389 17.8013 5.04869 17.7845C5.09349 17.7677 5.13269 17.7453 5.16909 17.7145C5.20269 17.6865 5.23069 17.6501 5.25309 17.6137C5.27549 17.5745 5.28389 17.5353 5.28389 17.4961V17.3477ZM5.28949 17.8209C5.23909 17.8881 5.17189 17.9385 5.09069 17.9721C5.00949 18.0057 4.92549 18.0225 4.83869 18.0225C4.78269 18.0225 4.72669 18.0141 4.67349 18.0001C4.61749 17.9861 4.56709 17.9609 4.52229 17.9273C4.47749 17.8937 4.44109 17.8517 4.41309 17.7957C4.38509 17.7425 4.37109 17.6781 4.37109 17.5997C4.37109 17.4541 4.42149 17.3393 4.52229 17.2525C4.62309 17.1657 4.76869 17.1209 4.95909 17.1209C4.98989 17.1209 5.02349 17.1209 5.05709 17.1237C5.09069 17.1265 5.12429 17.1265 5.15509 17.1293C5.18589 17.1321 5.21389 17.1321 5.23629 17.1349C5.25869 17.1377 5.27549 17.1377 5.28669 17.1405V17.0901C5.28669 16.9893 5.25589 16.9193 5.19429 16.8745C5.13269 16.8297 5.05149 16.8101 4.94789 16.8101C4.84709 16.8101 4.76589 16.8241 4.70429 16.8521C4.64549 16.8801 4.59509 16.9081 4.55309 16.9361L4.43269 16.7597C4.45509 16.7401 4.48309 16.7205 4.51669 16.7009C4.55029 16.6813 4.58669 16.6645 4.63149 16.6477C4.67629 16.6309 4.72669 16.6169 4.78269 16.6085C4.83869 16.5973 4.90309 16.5917 4.97589 16.5917C5.14949 16.5917 5.28669 16.6337 5.38469 16.7177C5.48269 16.8017 5.53309 16.9193 5.53309 17.0733V17.7089V17.8545C5.53309 17.9021 5.53309 17.9413 5.53589 17.9749H5.29509L5.28949 17.8209Z" fill="#7A6E66"/>
<path d="M5.78796 16.9304V16.7764C5.78796 16.7316 5.78796 16.6868 5.78516 16.6392H6.03436L6.04276 16.8408C6.05956 16.8184 6.08196 16.7932 6.10716 16.7652C6.13236 16.7372 6.16316 16.712 6.19956 16.6868C6.23596 16.6644 6.27796 16.6448 6.32836 16.6308C6.37876 16.614 6.43196 16.6084 6.49356 16.6084C6.66996 16.6084 6.79876 16.6588 6.88556 16.7624C6.96956 16.866 7.01156 17.0032 7.01156 17.1796V17.986H6.75116V17.1992C6.75116 17.0732 6.72316 16.9808 6.66996 16.922C6.61676 16.8632 6.54116 16.8352 6.44316 16.8324C6.36756 16.8324 6.30596 16.8492 6.25556 16.88C6.20516 16.9108 6.16596 16.95 6.13516 17.0004C6.10436 17.048 6.08196 17.1068 6.07076 17.1684C6.05676 17.23 6.05116 17.2944 6.05116 17.3588V17.9832H5.79076V16.9304H5.78796Z" fill="#7A6E66"/>
<path d="M7.25781 16.054H7.51541V17.1908L8.08101 16.6364L8.39181 16.6392L7.88501 17.1348L8.46741 17.9832H8.15941L7.70301 17.3084L7.51541 17.4876V17.9832H7.25781V16.054Z" fill="#7A6E66"/>
<path d="M10.0433 17.2104L9.73246 16.362L9.41606 17.2104H10.0433ZM9.59806 16.054H9.88086L10.6369 17.9832H10.3289L10.1301 17.4456H9.33766L9.13886 17.9832H8.84766L9.59806 16.054Z" fill="#7A6E66"/>
<path d="M10.7461 16.054H11.0065V17.9832H10.7461V16.054Z" fill="#7A6E66"/>
<path d="M11.5213 17.7592C11.5493 17.7676 11.5829 17.776 11.6221 17.7844C11.6613 17.7928 11.7201 17.7984 11.7985 17.7984C11.8741 17.7984 11.9413 17.7872 12.0001 17.762C12.0617 17.7396 12.1121 17.7032 12.1569 17.6612C12.1989 17.6164 12.2325 17.566 12.2549 17.5044C12.2773 17.4428 12.2885 17.3784 12.2913 17.3056C12.2913 17.244 12.2829 17.1852 12.2689 17.1292C12.2549 17.0732 12.2325 17.0228 12.1989 16.978C12.1681 16.936 12.1261 16.8996 12.0785 16.8744C12.0309 16.8492 11.9721 16.8352 11.9021 16.8352C11.8377 16.8352 11.7817 16.8464 11.7369 16.8688C11.6893 16.8912 11.6501 16.9192 11.6193 16.9556C11.5885 16.992 11.5633 17.034 11.5493 17.0788C11.5325 17.1264 11.5269 17.174 11.5269 17.2244V17.7592H11.5213ZM11.2637 16.054H11.5241V16.7848C11.5381 16.768 11.5549 16.7484 11.5801 16.726C11.6053 16.7036 11.6333 16.684 11.6697 16.6672C11.7061 16.6476 11.7453 16.6336 11.7901 16.6224C11.8349 16.6112 11.8853 16.6056 11.9413 16.6056C12.0421 16.6056 12.1289 16.6224 12.2045 16.6588C12.2801 16.6952 12.3445 16.7428 12.3977 16.8072C12.4509 16.8688 12.4901 16.9444 12.5153 17.0284C12.5405 17.1124 12.5545 17.202 12.5545 17.3C12.5545 17.4064 12.5377 17.5044 12.4985 17.5912C12.4621 17.6808 12.4089 17.7564 12.3445 17.8208C12.2773 17.8852 12.1989 17.9356 12.1065 17.9692C12.0141 18.0056 11.9105 18.0224 11.7985 18.0224C11.6893 18.0224 11.5857 18.014 11.4933 17.9972C11.3981 17.9804 11.3225 17.958 11.2665 17.9356V16.054H11.2637Z" fill="#7A6E66"/>
<path d="M12.7598 16.6392H13.0202V17.9832H12.7598V16.6392ZM12.7402 16.1044H13.0314V16.3956H12.7402V16.1044Z" fill="#7A6E66"/>
<path d="M13.2891 16.054H13.5495V17.9832H13.2891V16.054Z" fill="#7A6E66"/>
<path d="M14.6441 17.3476C14.6357 17.3448 14.6217 17.342 14.5993 17.3392C14.5769 17.3364 14.5517 17.3336 14.5237 17.3308C14.4929 17.328 14.4649 17.328 14.4313 17.3252C14.3977 17.3224 14.3669 17.3224 14.3361 17.3224C14.2633 17.3224 14.2045 17.3308 14.1569 17.3476C14.1121 17.3644 14.0757 17.3868 14.0505 17.412C14.0253 17.4372 14.0057 17.468 13.9973 17.4988C13.9861 17.5296 13.9833 17.5604 13.9833 17.5884C13.9833 17.6612 14.0085 17.7172 14.0589 17.7536C14.1093 17.79 14.1765 17.8096 14.2661 17.8096C14.3165 17.8096 14.3641 17.8012 14.4089 17.7816C14.4537 17.7648 14.4929 17.7424 14.5293 17.7116C14.5657 17.6836 14.5909 17.65 14.6133 17.6108C14.6329 17.5716 14.6441 17.5324 14.6441 17.4932V17.3476ZM14.6469 17.8208C14.5965 17.888 14.5293 17.9384 14.4481 17.972C14.3669 18.0056 14.2829 18.0224 14.1961 18.0224C14.1401 18.0224 14.0841 18.014 14.0309 18C13.9749 17.986 13.9245 17.9608 13.8797 17.9272C13.8349 17.8936 13.7985 17.8516 13.7705 17.7956C13.7425 17.7424 13.7285 17.678 13.7285 17.5996C13.7285 17.454 13.7789 17.3392 13.8797 17.2524C13.9805 17.1656 14.1261 17.1236 14.3165 17.1208C14.3473 17.1208 14.3809 17.1208 14.4145 17.1236C14.4481 17.1264 14.4817 17.1264 14.5125 17.1292C14.5433 17.132 14.5713 17.132 14.5937 17.1348C14.6161 17.1376 14.6329 17.1376 14.6441 17.1404V17.0928C14.6441 16.992 14.6133 16.922 14.5517 16.8772C14.4901 16.8324 14.4089 16.8128 14.3053 16.8128C14.2045 16.8128 14.1233 16.8268 14.0617 16.8548C14.0029 16.8828 13.9525 16.9108 13.9105 16.9388L13.7901 16.7624C13.8125 16.7428 13.8405 16.7232 13.8741 16.7036C13.9077 16.684 13.9441 16.6672 13.9889 16.6504C14.0337 16.6336 14.0841 16.6196 14.1401 16.6112C14.1961 16.6 14.2605 16.5944 14.3333 16.5944C14.5069 16.5944 14.6441 16.6364 14.7421 16.7204C14.8429 16.8044 14.8905 16.922 14.8905 17.076V17.7116V17.8572C14.8905 17.9048 14.8905 17.944 14.8933 17.9776H14.6497L14.6469 17.8208Z" fill="#7A6E66"/>
<path d="M16.1161 16.936C16.0965 16.922 16.0601 16.8996 16.0097 16.8744C15.9565 16.8492 15.8837 16.8352 15.7857 16.8352C15.7213 16.8352 15.6625 16.8464 15.6121 16.8688C15.5589 16.8912 15.5113 16.9248 15.4721 16.9668C15.4329 17.0088 15.4021 17.062 15.3797 17.1236C15.3573 17.1852 15.3461 17.2552 15.3461 17.3308C15.3461 17.3952 15.3545 17.454 15.3685 17.5128C15.3853 17.5688 15.4077 17.6192 15.4385 17.6612C15.4693 17.7032 15.5113 17.7368 15.5589 17.762C15.6093 17.7844 15.6681 17.7984 15.7353 17.7984C15.8025 17.7984 15.8613 17.7872 15.9089 17.762C15.9565 17.7368 15.9957 17.706 16.0265 17.6668C16.0573 17.6304 16.0769 17.5884 16.0937 17.5436C16.1077 17.4988 16.1161 17.4568 16.1161 17.4176V16.936ZM16.1161 17.8124C16.1049 17.8236 16.0909 17.8432 16.0685 17.8656C16.0461 17.8908 16.0181 17.9132 15.9789 17.9356C15.9425 17.958 15.9005 17.9804 15.8501 17.9972C15.7997 18.014 15.7437 18.0224 15.6793 18.0224C15.5953 18.0224 15.5141 18.0056 15.4413 17.9748C15.3685 17.9412 15.3041 17.8964 15.2509 17.8348C15.1977 17.776 15.1557 17.7032 15.1249 17.6164C15.0941 17.5296 15.0801 17.4344 15.0801 17.328C15.0801 17.202 15.1025 17.0928 15.1473 17.0004C15.1921 16.908 15.2481 16.8324 15.3181 16.7736C15.3853 16.7148 15.4609 16.6728 15.5393 16.6448C15.6205 16.6168 15.6961 16.6056 15.7661 16.6056C15.8641 16.6056 15.9397 16.6168 15.9929 16.6392C16.0461 16.6616 16.0881 16.6812 16.1189 16.6924V16.054H16.3793V17.6892V17.8432C16.3793 17.888 16.3793 17.9328 16.3821 17.9804H16.1273L16.1161 17.8124Z" fill="#7A6E66"/>
<path d="M23.9319 10.9468H18.1191V14.4692C19.1187 13.884 20.2807 13.548 21.5211 13.548C22.8483 13.548 24.0859 13.9316 25.1303 14.5924V12.1424C25.1303 11.4816 24.5927 10.9468 23.9319 10.9468Z" fill="#F5B335"/>
<path d="M20.5235 14.2844C19.6443 14.2844 18.8239 14.5252 18.1211 14.9424V16.7596C18.1211 17.4204 18.6559 17.958 19.3167 17.958H25.1267C24.6479 15.8552 22.7691 14.2844 20.5235 14.2844Z" fill="#CE0E2D"/>
</svg>
